<svg width="24" height="24" viewBox="0 0 24 24" fill="none" xmlns="http://www.w3.org/2000/svg">
<path d="M12 24C18.6274 24 24 18.6274 24 12C24 5.37258 18.6274 0 12 0C5.37258 0 0 5.37258 0 12C0 18.6274 5.37258 24 12 24Z" fill="#DBDBDB"/>
<path d="M6 14.5C7.38071 14.5 8.5 13.3807 8.5 12C8.5 10.6193 7.38071 9.5 6 9.5C4.61929 9.5 3.5 10.6193 3.5 12C3.5 13.3807 4.61929 14.5 6 14.5Z" fill="#707070"/>
<path d="M12 14.5C13.3807 14.5 14.5 13.3807 14.5 12C14.5 10.6193 13.3807 9.5 12 9.5C10.6193 9.5 9.5 10.6193 9.5 12C9.5 13.3807 10.6193 14.5 12 14.5Z" fill="#707070"/>
<path d="M18 14.5C19.3807 14.5 20.5 13.3807 20.5 12C20.5 10.6193 19.3807 9.5 18 9.5C16.6193 9.5 15.5 10.6193 15.5 12C15.5 13.3807 16.6193 14.5 18 14.5Z" fill="#707070"/>
</svg>
