<svg width="16" height="16" viewBox="0 0 16 16" fill="none" xmlns="http://www.w3.org/2000/svg">
<path d="M8 16C12.4183 16 16 12.4183 16 8C16 3.58172 12.4183 0 8 0C3.58172 0 0 3.58172 0 8C0 12.4183 3.58172 16 8 16Z" fill="white"/>
<path d="M4 9.5C4.82843 9.5 5.5 8.82843 5.5 8C5.5 7.17157 4.82843 6.5 4 6.5C3.17157 6.5 2.5 7.17157 2.5 8C2.5 8.82843 3.17157 9.5 4 9.5Z" fill="#707070"/>
<path d="M8 9.5C8.82843 9.5 9.5 8.82843 9.5 8C9.5 7.17157 8.82843 6.5 8 6.5C7.17157 6.5 6.5 7.17157 6.5 8C6.5 8.82843 7.17157 9.5 8 9.5Z" fill="#707070"/>
<path d="M12 9.5C12.8284 9.5 13.5 8.82843 13.5 8C13.5 7.17157 12.8284 6.5 12 6.5C11.1716 6.5 10.5 7.17157 10.5 8C10.5 8.82843 11.1716 9.5 12 9.5Z" fill="#707070"/>
</svg>
