<svg width="16" height="16" viewBox="0 0 16 16" fill="none" xmlns="http://www.w3.org/2000/svg">
<path d="M8 16C12.4183 16 16 12.4183 16 8C16 3.58172 12.4183 0 8 0C3.58172 0 0 3.58172 0 8C0 12.4183 3.58172 16 8 16Z" fill="white"/>
<path d="M11.8921 4.10499C11.1219 3.33467 10.1407 2.81003 9.0724 2.59741C8.0041 2.3848 6.89675 2.49377 5.89039 2.91054C4.88403 3.32731 4.02386 4.03315 3.41868 4.93881C2.8135 5.84446 2.49048 6.90924 2.49048 7.99849C2.49048 9.08773 2.8135 10.1525 3.41868 11.0582C4.02386 11.9638 4.88403 12.6697 5.89039 13.0864C6.89675 13.5032 8.0041 13.6122 9.0724 13.3996C10.1407 13.1869 11.1219 12.6623 11.8921 11.892C12.9248 10.8592 13.505 9.45852 13.505 7.99799C13.505 6.53746 12.9248 5.13675 11.8921 4.10399V4.10499ZM12.5921 8.50499C12.584 8.40909 12.6038 8.31291 12.6491 8.22799C12.7751 7.94599 12.9011 7.66499 13.0491 7.38799C13.178 8.37874 13.0037 9.3853 12.5491 10.275C12.4821 9.91599 12.4231 9.57499 12.3771 9.22199C12.3717 9.19716 12.3724 9.17142 12.379 9.1469C12.3856 9.12238 12.398 9.09979 12.4151 9.08099C12.4884 9.00522 12.5426 8.91313 12.5734 8.8123C12.6042 8.71147 12.6106 8.60477 12.5921 8.50099V8.50499ZM7.89205 13.053C7.9502 12.8765 7.97264 12.6902 7.95805 12.505C7.97102 12.4388 7.96068 12.3702 7.92878 12.3107C7.89688 12.2513 7.84539 12.2048 7.78305 12.179C7.48542 12.0032 7.22599 11.7696 7.02005 11.492C6.99505 11.463 6.97705 11.426 6.93005 11.426C6.88305 11.426 6.89205 11.392 6.89205 11.361C6.88005 11.238 6.86505 11.116 6.85605 10.993C6.85408 10.9249 6.87321 10.858 6.91081 10.8012C6.9484 10.7444 7.00263 10.7007 7.06605 10.676C7.14405 10.647 7.19105 10.617 7.15805 10.523C7.15149 10.4896 7.1539 10.4551 7.16505 10.423C7.16933 10.4052 7.16891 10.3867 7.16382 10.3691C7.15874 10.3516 7.14916 10.3357 7.13605 10.323C7.01205 10.194 7.01205 10.191 6.90605 10.336C6.87205 10.382 6.84605 10.395 6.80005 10.352C6.67366 10.2354 6.52101 10.151 6.35505 10.106C6.29905 10.09 6.27405 10.06 6.28405 10.006C6.28927 9.9724 6.28423 9.93801 6.2696 9.90733C6.25498 9.87665 6.23143 9.85109 6.20205 9.83399C6.09753 9.74326 5.96907 9.68459 5.83205 9.66499C5.80182 9.66373 5.77262 9.65365 5.74805 9.63599C5.62101 9.5401 5.48005 9.46423 5.33005 9.41099C5.30008 9.39281 5.2648 9.3854 5.23005 9.38999C5.00759 9.39643 4.78783 9.33993 4.59605 9.22699C4.49849 9.2045 4.41361 9.14471 4.3596 9.06041C4.30558 8.97612 4.28672 8.87402 4.30705 8.77599C4.31267 8.68875 4.28355 8.60283 4.22605 8.53699C4.10158 8.38086 4.0267 8.19105 4.01105 7.99199C4.01105 7.85399 3.89605 7.83099 3.81105 7.77499C3.78205 7.75499 3.77605 7.78099 3.77505 7.80399C3.743 7.95141 3.76501 8.10544 3.83705 8.23799C3.90744 8.34982 3.97057 8.46606 4.02605 8.58599C4.03705 8.60699 4.05605 8.62999 4.03105 8.64999C4.00605 8.66999 3.99205 8.64999 3.97505 8.63699C3.83405 8.51999 3.67505 8.42599 3.54105 8.29899C3.52748 8.28982 3.51637 8.27745 3.5087 8.26298C3.50103 8.2485 3.49703 8.23237 3.49705 8.21599C3.53905 7.74999 3.43705 7.29199 3.44305 6.83099C3.42928 6.60108 3.48541 6.37239 3.60405 6.17499C3.71161 5.99441 3.78896 5.79749 3.83305 5.59199C3.84705 5.54099 3.86305 5.49999 3.93305 5.51199C3.97905 5.51999 3.97905 5.48999 3.97905 5.45799V5.07599C3.97905 5.04199 3.97905 5.00899 4.01105 4.98799C4.10653 4.91376 4.17132 4.80696 4.19305 4.68799C4.21238 4.61108 4.25584 4.54239 4.31705 4.49199C4.40005 4.42699 4.46405 4.34399 4.53905 4.27399C5.09989 3.74519 5.77502 3.35271 6.51205 3.12699C6.54705 3.11599 6.58205 3.09899 6.58205 3.16299C6.58205 3.19099 6.61705 3.19099 6.63905 3.19899C6.73905 3.23199 6.83905 3.26499 6.93905 3.29899C7.0091 3.31813 7.083 3.31813 7.15305 3.29899C7.25047 3.27901 7.35182 3.29425 7.43905 3.34199C7.48205 3.36699 7.50205 3.35599 7.51505 3.30899C7.53305 3.24599 7.56505 3.18599 7.57805 3.12099C7.58796 3.08643 7.605 3.05433 7.62808 3.02677C7.65116 2.99921 7.67977 2.9768 7.71205 2.96099C7.75505 2.93099 7.77905 2.94099 7.78105 2.99399C7.78305 3.04699 7.78105 3.10199 7.78105 3.15699C7.78105 3.25699 7.80605 3.27799 7.90505 3.26999C7.98605 3.26399 8.06605 3.24999 8.14705 3.23999C8.16805 3.23999 8.19005 3.23099 8.20405 3.25399C8.21805 3.27699 8.19805 3.29199 8.18505 3.30699C8.12505 3.37399 8.06305 3.43999 8.00405 3.50699C7.99445 3.51825 7.98222 3.52698 7.96844 3.53238C7.95466 3.53779 7.93975 3.53972 7.92505 3.53799C7.88905 3.53799 7.85305 3.53799 7.81705 3.53799C7.69705 3.53799 7.69505 3.53799 7.72805 3.64899C7.74005 3.69199 7.72805 3.70999 7.68505 3.71699C7.62605 3.72599 7.56705 3.74299 7.50805 3.75099C7.32676 3.76932 7.15695 3.84823 7.02605 3.97499C6.9643 4.03042 6.918 4.10095 6.89171 4.17966C6.86541 4.25837 6.86002 4.34257 6.87605 4.42399C6.88205 4.44999 6.89105 4.46299 6.91605 4.45799C6.99166 4.45502 7.0656 4.48074 7.12305 4.52999C7.18038 4.56859 7.2398 4.60398 7.30105 4.63599C7.37478 4.66729 7.43519 4.72347 7.47174 4.79474C7.50829 4.86601 7.51866 4.94785 7.50105 5.02599C7.49428 5.06702 7.50094 5.10914 7.52004 5.14608C7.53914 5.18302 7.56966 5.2128 7.60705 5.23099C7.63905 5.25299 7.65305 5.25299 7.67705 5.22099C7.70453 5.19009 7.72508 5.15367 7.73733 5.11417C7.74957 5.07467 7.75323 5.03301 7.74805 4.99199C7.73759 4.95394 7.74213 4.91333 7.76074 4.87853C7.77935 4.84374 7.8106 4.81741 7.84805 4.80499C7.91897 4.77987 7.97786 4.72903 8.01305 4.66253C8.04824 4.59604 8.05716 4.51875 8.03805 4.44599C8.03156 4.41409 8.03261 4.38111 8.04111 4.34968C8.04962 4.31826 8.06535 4.28926 8.08705 4.26499C8.13367 4.19378 8.15417 4.10861 8.14505 4.02399C8.14505 3.97699 8.14505 3.93099 8.20505 3.91799C8.28005 3.90099 8.34405 3.80699 8.43305 3.88499C8.44861 3.89937 8.46612 3.91148 8.48505 3.92099C8.55654 3.95201 8.61788 4.00248 8.66208 4.06666C8.70628 4.13084 8.73156 4.20614 8.73505 4.28399C8.73719 4.31043 8.74654 4.33578 8.76208 4.35727C8.77763 4.37876 8.79877 4.39558 8.82321 4.4059C8.84765 4.41621 8.87445 4.41962 8.9007 4.41576C8.92694 4.41189 8.95162 4.4009 8.97205 4.38399C9.14005 4.28399 9.14905 4.28399 9.19005 4.47599C9.20098 4.54958 9.2289 4.61961 9.2716 4.68054C9.3143 4.74146 9.37061 4.79161 9.43605 4.82699C9.59154 4.91423 9.71965 5.04304 9.80605 5.19899C9.83505 5.24899 9.84005 5.28199 9.80005 5.32399C9.76005 5.36599 9.72405 5.43699 9.66105 5.47599C9.59619 5.51887 9.51833 5.53763 9.44105 5.52899C9.22305 5.50699 9.00305 5.49799 8.78705 5.45699C8.76896 5.45264 8.75002 5.45343 8.73236 5.45926C8.71469 5.46509 8.699 5.47573 8.68705 5.48999C8.62312 5.55183 8.56426 5.61871 8.51105 5.68999C8.61645 5.67628 8.71943 5.64801 8.81705 5.60599C8.89295 5.58784 8.97247 5.59201 9.04605 5.61799C9.08905 5.62699 9.08105 5.65599 9.07505 5.68799C9.04605 5.87699 9.04605 5.87699 9.21705 5.97499L9.36605 6.05999C9.38205 6.06899 9.39905 6.07799 9.39805 6.09999C9.39705 6.12199 9.37805 6.12799 9.36005 6.13199C9.18049 6.16866 9.00569 6.2257 8.83905 6.30199C8.79205 6.32299 8.75105 6.28599 8.71405 6.26599C8.62605 6.21699 8.55305 6.26599 8.48705 6.30199C8.44305 6.32499 8.45805 6.39699 8.46005 6.44599C8.46005 6.52199 8.43305 6.54599 8.36005 6.54099C8.31205 6.53599 8.26005 6.54699 8.21505 6.54099C8.14133 6.52974 8.06594 6.53932 7.99738 6.56866C7.92882 6.59799 7.86982 6.6459 7.82705 6.70699C7.67336 6.86557 7.57754 7.07129 7.55505 7.29099C7.54705 7.36899 7.51905 7.41599 7.43605 7.42999C7.36181 7.44326 7.2891 7.46404 7.21905 7.49199C7.15205 7.51799 7.06405 7.50199 7.01905 7.57999C6.92668 7.71516 6.88751 7.87969 6.90905 8.04199C6.9143 8.08076 6.92438 8.11872 6.93905 8.15499C6.95863 8.20845 6.96522 8.2658 6.95827 8.32231C6.95131 8.37882 6.93101 8.43287 6.89905 8.47999C6.87705 8.52799 6.85305 8.52399 6.81805 8.49099C6.71415 8.39827 6.63625 8.28004 6.59205 8.14799C6.57143 8.08702 6.53368 8.03327 6.48331 7.99319C6.43295 7.95311 6.3721 7.92839 6.30805 7.92199C6.13815 7.88045 5.9594 7.89447 5.79805 7.96199C5.72538 7.98111 5.64879 7.97938 5.57705 7.95699C5.49501 7.95321 5.41302 7.96566 5.3358 7.99363C5.25858 8.0216 5.18764 8.06454 5.12705 8.11999C5.10105 8.13899 5.10505 8.16699 5.10405 8.19399C5.10038 8.39428 5.10839 8.59463 5.12805 8.79399C5.13051 8.82698 5.14554 8.85777 5.17005 8.87999C5.22805 8.93699 5.28805 8.99199 5.34205 9.05199C5.35919 9.07245 5.38113 9.08837 5.4059 9.09831C5.43067 9.10825 5.45752 9.11192 5.48405 9.10899C5.51335 9.1105 5.54239 9.10283 5.56713 9.08706C5.59186 9.07129 5.61106 9.04819 5.62205 9.02099C5.66425 8.9361 5.72927 8.86465 5.80982 8.81466C5.89037 8.76467 5.98325 8.73812 6.07805 8.73799C6.13605 8.73799 6.13205 8.76099 6.12205 8.80499C6.07298 8.98201 6.00596 9.15357 5.92205 9.31699C5.89105 9.38199 5.91005 9.39499 5.97305 9.39999C6.12671 9.39449 6.28003 9.41789 6.42505 9.46899C6.47305 9.49199 6.49805 9.51599 6.49305 9.56899C6.49224 9.58398 6.49224 9.599 6.49305 9.61399C6.50005 9.86199 6.50105 9.85999 6.70505 9.99999C6.72236 10.013 6.74342 10.02 6.76505 10.02C6.78669 10.02 6.80774 10.013 6.82505 9.99999C6.95905 9.92499 6.96305 9.92399 7.08205 10.031C7.14105 10.085 7.18205 10.091 7.23005 10.023C7.23805 10.011 7.25305 10.003 7.26105 9.99099C7.31657 9.92543 7.38634 9.87343 7.46502 9.83894C7.5437 9.80445 7.62922 9.78839 7.71505 9.79199C7.76205 9.78499 7.78405 9.79899 7.77905 9.84899C7.77405 9.89899 7.77105 9.94899 7.76605 10.017C7.84505 9.96299 7.91205 9.91699 7.97605 9.87199C7.99004 9.86115 8.00639 9.85377 8.02377 9.85047C8.04115 9.84717 8.05907 9.84803 8.07605 9.85299C8.32006 9.91863 8.56993 9.96017 8.82205 9.97699C8.86764 9.97732 8.91134 9.99523 8.94405 10.027L8.95805 10.038C9.18069 10.2556 9.46553 10.3985 9.77305 10.447C9.83805 10.456 9.86205 10.493 9.88105 10.555C9.90904 10.6193 9.91733 10.6905 9.90487 10.7596C9.89241 10.8287 9.85976 10.8925 9.81105 10.943C9.83505 10.976 9.86105 10.963 9.88305 10.963C10.1091 10.963 10.3351 10.97 10.5601 10.963C10.5912 10.9612 10.6223 10.9671 10.6507 10.9799C10.679 10.9928 10.7039 11.0124 10.7231 11.037C10.7812 11.1071 10.8433 11.1739 10.9091 11.237C10.9581 11.283 10.9591 11.314 10.9171 11.37C10.805 11.5131 10.6698 11.6364 10.5171 11.735C10.4224 11.794 10.3488 11.8815 10.3071 11.985C10.2691 12.092 10.2081 12.1895 10.1285 12.2705C10.0488 12.3515 9.95244 12.4142 9.84605 12.454C9.73915 12.508 9.62322 12.5419 9.50405 12.554C9.46714 12.552 9.4304 12.5603 9.39792 12.578C9.36544 12.5956 9.33848 12.6219 9.32005 12.654C9.30101 12.6846 9.27406 12.7095 9.24205 12.726L8.71005 13.033C8.65127 13.0563 8.58827 13.0672 8.52505 13.065C8.33068 13.0888 8.13481 13.0981 7.93905 13.093C7.91605 13.093 7.86005 13.106 7.88805 13.054L7.89205 13.053ZM7.39205 3.13899C7.40205 3.19299 7.37605 3.21099 7.32105 3.21099C7.17063 3.20878 7.02043 3.19877 6.87105 3.18099C6.79905 3.17499 6.79205 3.12499 6.78705 3.08099C6.78205 3.03699 6.83005 3.03999 6.85505 3.03399C7.07654 2.98209 7.30144 2.94599 7.52805 2.92599C7.52246 2.94062 7.51401 2.95399 7.50319 2.96532C7.49237 2.97666 7.47941 2.98572 7.46505 2.99199C7.43831 3.00493 7.41663 3.02639 7.40341 3.053C7.3902 3.07961 7.3862 3.10986 7.39205 3.13899ZM10.5921 4.09199C10.6321 4.17635 10.6476 4.27023 10.6371 4.36299C10.6376 4.37935 10.6343 4.39561 10.6276 4.41052C10.6208 4.42543 10.6107 4.43859 10.5981 4.44899C10.5051 4.53299 10.5091 4.52899 10.4091 4.44899C10.1085 4.18518 9.84211 3.88486 9.61605 3.55499C9.50856 3.43389 9.40902 3.30595 9.31805 3.17199C9.28305 3.11399 9.20105 3.10299 9.13705 3.05799C9.15274 3.0508 9.1698 3.04708 9.18705 3.04708C9.20431 3.04708 9.22136 3.0508 9.23705 3.05799C9.73839 3.18574 10.2177 3.38799 10.6591 3.65799C10.7191 3.69399 10.7301 3.72799 10.7001 3.78399C10.6591 3.86699 10.6571 3.96799 10.5791 4.03199C10.5551 4.05099 10.5761 4.07699 10.5921 4.09199ZM10.2281 6.02799C10.2041 6.04599 10.1821 6.02799 10.1621 6.01799C10.1126 5.98075 10.056 5.954 9.99582 5.93938C9.93564 5.92477 9.87311 5.92259 9.81205 5.93299H9.74005C9.58005 5.93299 9.55705 5.91499 9.54605 5.75499C9.54605 5.74599 9.54605 5.73399 9.54605 5.72899C9.61672 5.65986 9.69487 5.59882 9.77905 5.54699C9.81705 5.51699 9.85205 5.55499 9.88705 5.56599C9.97707 5.59565 10.057 5.64999 10.1176 5.72283C10.1782 5.79567 10.2172 5.88408 10.2301 5.97799C10.2301 5.99599 10.2451 6.01499 10.2301 6.02699L10.2281 6.02799ZM9.25805 3.52799C9.28506 3.57006 9.29942 3.619 9.29942 3.66899C9.29942 3.71898 9.28506 3.76792 9.25805 3.80999C9.23705 3.82999 9.21905 3.81699 9.20105 3.80999L9.03505 3.73199L9.11305 3.93199C9.11771 3.93983 9.12041 3.94868 9.12093 3.95779C9.12146 3.9669 9.11979 3.976 9.11606 3.98433C9.11234 3.99266 9.10667 3.99997 9.09954 4.00565C9.0924 4.01134 9.084 4.01522 9.07505 4.01699C8.97505 4.05599 8.88105 4.08299 8.79405 3.97699C8.67299 3.85911 8.5261 3.77112 8.36505 3.71999C8.29705 3.68899 8.28705 3.65799 8.34505 3.61299C8.42724 3.5301 8.47693 3.42044 8.48505 3.30399C8.48713 3.28371 8.48498 3.26322 8.47872 3.24383C8.47246 3.22443 8.46223 3.20654 8.44869 3.19131C8.43515 3.17608 8.41859 3.16382 8.40006 3.15533C8.38153 3.14684 8.36143 3.1423 8.34105 3.14199C8.22405 3.14199 8.10605 3.14199 7.98905 3.14199C7.96005 3.14199 7.91305 3.16299 7.90605 3.11599C7.89905 3.06899 7.87905 3.01599 7.93005 2.97499C7.95458 2.95082 7.98388 2.93202 8.01608 2.9198C8.04827 2.90757 8.08266 2.90219 8.11705 2.90399C8.21705 2.91599 8.31705 2.91599 8.42305 2.92399C8.48424 2.92555 8.54445 2.93977 8.59987 2.96576C8.65529 2.99175 8.70472 3.02894 8.74505 3.07499C8.89205 3.24499 9.09205 3.36899 9.25805 3.52699V3.52799ZM9.04405 9.64499C9.03305 9.68699 9.07605 9.75899 9.01305 9.76799C8.95005 9.77699 8.96205 9.69799 8.94605 9.65699C8.91805 9.58499 8.90205 9.50899 8.88005 9.43399C8.87505 9.41599 8.87005 9.39899 8.88805 9.38499C8.90605 9.37099 8.92105 9.38499 8.93705 9.39299C8.97737 9.4059 9.01108 9.434 9.03105 9.47132C9.05102 9.50865 9.05568 9.55228 9.04405 9.59299C9.04547 9.60896 9.04547 9.62502 9.04405 9.64099V9.64499ZM8.68605 9.25899C8.68605 9.30199 8.63105 9.29399 8.60005 9.30899C8.57826 9.31814 8.55587 9.32582 8.53305 9.33199C8.42505 9.36799 8.37205 9.33199 8.34505 9.22199C8.34505 9.20299 8.33805 9.18399 8.35805 9.17599C8.40705 9.15399 8.45805 9.13499 8.50305 9.11599C8.54084 9.12018 8.57786 9.1296 8.61305 9.14399C8.63407 9.15528 8.65182 9.17179 8.6646 9.19193C8.67739 9.21207 8.68478 9.23517 8.68605 9.25899ZM8.27405 9.15899C8.15948 9.23379 8.02352 9.26892 7.88705 9.25899C7.82505 9.24699 7.74605 9.29099 7.72105 9.19199C7.71405 9.16499 7.71205 9.14699 7.73905 9.13299C7.8168 9.08186 7.90563 9.05002 7.99815 9.0401C8.09068 9.03019 8.18424 9.04249 8.27105 9.07599C8.33505 9.10699 8.31005 9.12999 8.27405 9.15999V9.15899ZM7.38105 9.09199C7.3434 9.10404 7.3027 9.10242 7.26611 9.08742C7.22953 9.07243 7.19941 9.04501 7.18105 9.00999C7.12679 8.94069 7.05867 8.88348 6.98105 8.84199C6.96598 8.83349 6.94932 8.82822 6.9321 8.8265C6.91489 8.82477 6.89751 8.82664 6.88105 8.83199C6.7681 8.84704 6.65689 8.87317 6.54905 8.90999C6.44905 8.94399 6.42905 8.86099 6.39105 8.80999C6.35305 8.75899 6.41805 8.74299 6.44105 8.70999C6.55405 8.56999 6.71005 8.60999 6.84905 8.63399C7.1346 8.69337 7.4032 8.81605 7.63505 8.99299C7.65405 9.00599 7.68205 9.01599 7.67305 9.04599C7.66405 9.07599 7.63505 9.07099 7.61305 9.07099C7.55905 9.07099 7.50505 9.07099 7.45005 9.07099V9.09199C7.42628 9.09307 7.40258 9.09541 7.37905 9.09899L7.38105 9.09199ZM7.40505 9.25599C7.40505 9.27899 7.38305 9.28299 7.36605 9.28699C7.29905 9.30299 7.23205 9.31899 7.16605 9.33199C7.08928 9.31139 7.01993 9.26943 6.96605 9.21099C6.95805 9.18499 6.96605 9.16999 6.99505 9.16899C7.02405 9.16799 7.06105 9.16899 7.09505 9.16899C7.18596 9.16902 7.2761 9.18563 7.36105 9.21799C7.38105 9.22299 7.40305 9.22799 7.40105 9.25599H7.40505Z" fill="#999999"/>
</svg>
